# Blender 3.4.1
# www.blender.org
mtllib hair2.mtl
o ManHairFBX.002
v -3.034504 3.313825 -2.530833
v -3.167773 3.198791 -2.385475
v -3.070580 3.261622 -2.376586
v -2.993061 3.366965 -2.318234
v -2.979478 2.857675 -3.386636
v -3.123212 3.361165 -2.499052
v -2.884454 2.498256 -3.348855
v -2.491484 2.286485 -3.576054
v -3.069486 3.395957 -2.562861
v -2.689414 2.066258 -3.418599
v -2.733918 2.225734 -3.410118
v -3.106769 3.331691 -2.774103
v -3.038736 2.921782 -3.280629
v -2.949768 2.619939 -3.450584
v -2.851408 2.363786 -3.382825
v -2.920902 2.563762 -3.267052
v -2.881787 2.676427 -3.607507
v -1.750299 2.150937 -3.484491
v -2.649364 2.297591 -3.522495
v -2.842409 2.277926 -3.266763
v -2.973166 2.677295 -3.286448
v -1.324002 3.143313 -2.989772
v -3.062703 3.232837 -3.338991
v -1.314334 3.989146 -3.150153
v -1.456460 3.878402 -2.702070
v -3.062956 3.161786 -2.683150
v -1.409953 3.789487 -3.013264
v -2.816201 2.250005 -3.160700
v -3.199515 3.237144 -2.938961
v -3.096349 3.282784 -2.861657
v -1.551641 2.333322 -3.183172
v -1.425209 2.706666 -3.211661
v -1.477291 3.745381 -2.308045
v -1.381446 3.715789 -2.883274
v -3.066317 3.073323 -3.204964
v -1.361783 3.179875 -2.690498
v -1.348651 3.047051 -2.793773
v -1.350043 3.142999 -2.902223
v -1.401928 2.670274 -3.210257
v -2.986983 2.856351 -2.551795
v -2.277717 1.952720 -3.568577
v -1.495085 3.858956 -2.215451
v -2.925026 2.488475 -3.188720
v -1.453764 2.530320 -3.167068
v -1.412509 3.687758 -2.341415
v -3.007101 2.948077 -2.415901
v -1.382073 3.050958 -2.383119
v -1.575855 2.195212 -3.147580
v -2.114589 1.952718 -3.568578
v -1.523930 3.900060 -2.089006
v -1.693047 1.976119 -3.354982
v -1.341229 3.112180 -3.045455
v -2.985912 2.861020 -2.448070
v -1.387530 2.926333 -2.411384
v -2.899425 2.461045 -3.211689
v -3.018805 2.904737 -2.669411
v -2.525941 1.924811 -3.485732
v -1.866358 1.924813 -3.485732
v -1.405952 3.219468 -2.278659
v -2.807378 2.100825 -3.181699
v -1.363616 3.571166 -2.342497
v -3.009626 3.133321 -3.418293
v -3.065342 3.192950 -3.203918
v -1.381794 3.995378 -3.221180
v -1.535889 3.786418 -3.716873
v -1.765272 2.912807 -3.899960
v -1.431997 3.960502 -2.156976
v -3.114874 3.296466 -3.099909
v -2.997777 3.046247 -3.522457
v -2.233779 2.152331 -3.654177
v -3.063293 3.355487 -2.664458
v -1.372691 4.084983 -2.669070
v -3.083165 3.246593 -2.685587
v -1.247455 3.502778 -3.066328
v -1.275169 3.937022 -2.770528
v -2.972040 2.835938 -3.515098
v -2.457407 2.145839 -3.612977
v -3.049189 3.089684 -2.788427
v -2.812015 2.424571 -3.445998
v -1.372274 3.216149 -2.303905
v -1.413938 3.100081 -2.409549
v -2.028821 1.959472 -3.509306
v -3.100271 3.252172 -3.006418
v -3.059561 2.997149 -2.617606
v -1.426856 3.209167 -2.320491
v -1.694680 2.476506 -3.641568
v -3.013835 2.792331 -3.340008
v -1.460391 3.839751 -3.568556
v -1.430932 2.627391 -3.404135
v -1.281136 3.953731 -3.076155
v -1.630481 2.039914 -3.309643
v -2.746797 2.014907 -3.326615
v -1.326442 3.082541 -3.093393
v -2.799729 2.485082 -3.569463
v -2.986370 2.719703 -3.229020
v -2.462217 2.078069 -3.590931
v -1.575855 2.100703 -3.193606
v -2.838473 2.188886 -3.172907
v -2.804116 2.087602 -3.241467
v -1.371632 2.901404 -2.440346
v -2.563899 2.140496 -3.505983
v -3.020668 2.901402 -2.440347
v -1.755009 2.820540 -3.851994
v -1.275041 3.411902 -3.237489
v -1.364951 3.344956 -3.544436
v -2.195359 1.949735 -3.642287
v -1.614532 3.314956 -3.809262
v -2.987847 3.218974 -2.301563
v -1.350702 3.965180 -2.517010
v -1.468776 2.753140 -3.528333
v -2.916592 2.756566 -3.555094
v -1.358349 2.915053 -2.657639
v -1.949896 1.966609 -3.603233
v -1.399134 4.048190 -2.527114
v -2.446027 1.966147 -3.602276
v -1.349900 3.901160 -3.331850
v -1.638802 3.072057 -3.793867
v -1.240456 3.537282 -2.871821
v -1.320878 3.029687 -2.714212
v -1.397075 3.518563 -3.578418
v -1.628679 2.158206 -3.348778
v -2.766592 2.280627 -3.372017
v -3.032987 2.921260 -3.182298
v -1.237365 3.786992 -2.858675
v -1.371371 2.796052 -3.253124
v -1.327302 3.161992 -2.672832
v -2.026476 2.377448 -3.683780
v -1.447478 3.921649 -2.301296
v -3.053462 3.107533 -3.045492
v -1.361745 3.761760 -2.385157
v -1.398345 2.782920 -3.415935
v -1.592565 3.469953 -3.830903
v -1.747493 1.977166 -3.473258
v -2.642134 1.967843 -3.473870
v -3.128987 3.331418 -3.079892
v -2.916020 2.445483 -3.258507
v -2.316388 2.252000 -3.639573
v -2.216232 2.072291 -3.637619
v -1.480106 2.432433 -3.223279
v -1.522479 3.983983 -2.798407
v -1.522910 3.933845 -2.542648
v -1.341646 3.189363 -3.063981
v -1.606975 2.112050 -3.165507
v -2.193803 1.941854 -3.511402
v -1.455933 3.721324 -2.372141
v -2.741243 2.231788 -3.280339
v -3.044360 3.145835 -2.944892
v -1.563990 3.814170 -2.148781
v -1.538523 3.803594 -2.245411
v -1.417896 3.606006 -2.421083
v -1.769069 1.953095 -3.391394
v -2.623232 1.953095 -3.391393
v -1.497963 2.490989 -3.224211
v -2.557158 2.278092 -3.557473
v -1.513548 3.782666 -3.642614
v -1.743785 2.604211 -3.741282
v -1.661533 3.305177 -3.832905
v -2.716231 2.297816 -3.481003
v -1.702994 3.132688 -3.930099
v -2.140175 2.286002 -3.681365
v -3.043130 3.200727 -2.409799
v -1.308967 3.742990 -3.376514
v -2.992989 2.972468 -3.428279
v -3.017975 3.082011 -2.386492
v -1.886983 2.272714 -3.638366
v -1.702135 2.080710 -3.419150
v -2.059425 2.199136 -3.624782
v -1.273566 3.867728 -2.682121
v -2.572755 1.965049 -3.547456
v -1.536011 2.264209 -3.220637
v -1.821069 1.966081 -3.548911
v -1.263551 3.836530 -3.170859
v -2.318085 1.971129 -3.622564
v -1.461260 3.964709 -2.353709
v -2.072752 1.971854 -3.623142
v -1.549961 3.656037 -3.765382
v -1.633587 2.348321 -3.508960
v -1.328200 3.453040 -2.336339
v -1.916023 2.090064 -3.584542
v -2.957978 2.733006 -3.425664
v -1.352457 3.191772 -2.933248
v -1.449286 3.924087 -3.450886
v -1.346409 4.050250 -3.005844
v -1.349956 4.079957 -2.837206
vn -0.9768 -0.1470 -0.1557
vn -0.9488 -0.1801 -0.2596
vn -0.9737 -0.2161 0.0724
vn -0.9917 -0.1127 0.0624
vn -0.9608 -0.2206 0.1678
vn -0.9413 -0.3033 -0.1479
vn -0.9044 -0.1389 0.4033
vn -0.7329 -0.6667 -0.1357
vn -0.9244 -0.3799 -0.0356
vn -0.9952 -0.0975 -0.0085
vn -0.9112 -0.3137 -0.2669
vn -0.9367 -0.3499 -0.0119
vn -0.9068 -0.3287 -0.2641
vn -0.9366 -0.3383 0.0914
vn -0.5946 -0.7623 0.2558
vn -0.9893 -0.1121 -0.0937
vn -0.9845 -0.1756 0.0008
vn -0.7274 -0.6835 -0.0614
vn -0.3577 -0.6996 -0.6186
vn -0.9676 0.0138 0.2523
vn -0.9680 -0.1167 0.2223
vn -0.6604 -0.5047 -0.5560
vn -0.7607 -0.3758 -0.5293
vn -0.7813 -0.4358 -0.4468
vn 0.8560 0.3810 0.3494
vn 0.8494 0.1220 0.5134
vn 0.9605 0.1664 0.2229
vn -0.6121 -0.0795 -0.7868
vn -0.4606 -0.1536 -0.8742
vn -0.4157 -0.1101 -0.9028
vn 0.0699 -0.9974 0.0156
vn -0.9711 -0.2367 -0.0309
vn -0.9711 -0.2273 -0.0724
vn -0.3222 0.1351 0.9370
vn -0.7384 -0.4005 -0.5425
vn 0.8309 0.1570 -0.5338
vn 0.8385 0.1213 -0.5312
vn 0.9576 0.0038 -0.2879
vn -0.9624 -0.1320 -0.2373
vn -0.9939 -0.1032 -0.0386
vn -0.9585 -0.1704 -0.2286
vn -0.8344 -0.4686 -0.2902
vn -0.9666 -0.2539 -0.0347
vn 0.8224 0.4018 -0.4029
vn 0.5397 0.7114 -0.4501
vn 0.8305 0.4405 -0.3411
vn 0.7966 0.4149 0.4397
vn 0.7982 0.4145 0.4370
vn -0.0119 -0.0705 -0.9974
vn 0.1551 -0.2336 -0.9599
vn 0.1525 -0.5576 -0.8160
vn 0.8664 0.4981 0.0347
vn 0.8765 0.4315 0.2133
vn 0.9315 0.3478 0.1070
vn -0.5737 0.1421 -0.8067
vn -0.4106 -0.0464 -0.9106
vn 0.9946 0.0850 0.0588
vn -0.9695 -0.2354 0.0679
vn -0.7448 -0.0556 -0.6649
vn -0.7779 -0.2378 -0.5817
vn -0.8509 -0.2134 -0.4800
vn -0.7929 -0.5433 -0.2761
vn -0.7787 -0.2635 -0.5694
vn -0.5010 -0.4081 -0.7632
vn -0.2954 0.1750 -0.9392
vn -0.9541 -0.1542 -0.2569
vn -0.9620 -0.2349 -0.1391
vn -0.9046 -0.1998 -0.3764
vn 0.8099 0.4796 0.3376
vn -0.1964 -0.4625 -0.8646
vn -0.0384 -0.1606 -0.9863
vn -0.7754 -0.1506 0.6133
vn 0.4443 -0.5922 -0.6723
vn -0.6527 0.0621 0.7551
vn -0.9933 -0.1096 -0.0354
vn -0.9772 -0.1268 -0.1700
vn -0.9291 -0.2935 0.2251
vn -0.9466 -0.0897 -0.3095
vn 0.1576 -0.2939 -0.9428
vn -0.2242 0.0254 -0.9742
vn -0.8564 -0.3632 -0.3670
vn 0.3802 -0.0896 -0.9206
vn 0.1421 -0.3247 -0.9351
vn 0.3246 -0.3611 -0.8742
vn -0.8438 -0.3079 -0.4395
vn -0.8642 -0.4649 -0.1925
vn -0.8401 -0.4494 -0.3038
vn 0.0088 -0.6612 -0.7502
vn -0.9163 -0.3886 -0.0963
vn 0.8299 0.0931 -0.5501
vn 0.2446 -0.0539 0.9681
vn -0.5854 -0.2427 0.7735
vn -0.4679 -0.8823 -0.0506
vn -0.7555 -0.4260 0.4977
vn -0.7098 -0.6587 0.2495
vn 0.8602 -0.3536 -0.3675
vn 0.9691 -0.1970 -0.1481
vn 0.8072 -0.4515 -0.3803
vn -0.9555 -0.2486 -0.1591
vn 0.2588 -0.9086 -0.3279
vn 0.6944 -0.4954 -0.5219
vn 0.7090 -0.6266 -0.3237
vn 0.9556 -0.1333 0.2629
vn 0.7873 -0.1764 0.5908
vn -0.2462 -0.1250 0.9611
vn -0.8614 -0.1804 0.4749
vn 0.8062 -0.4751 0.3526
vn 0.5977 0.0625 0.7993
vn -0.1044 -0.9765 -0.1885
vn 0.0279 -0.9981 -0.0554
vn 0.4238 0.1840 0.8868
vn 0.7344 0.0241 0.6783
vn 0.1075 -0.9839 -0.1430
vn 0.8215 -0.2948 -0.4880
vn 0.9428 -0.3306 -0.0419
vn 0.9507 -0.2998 0.0793
vn 0.6058 -0.3512 -0.7139
vn 0.9403 0.3246 -0.1021
vn 0.7937 0.6018 -0.0893
vn 0.9089 0.1636 -0.3836
vn 0.8761 -0.0715 -0.4768
vn 0.7599 -0.6066 0.2337
vn 0.7036 -0.6128 0.3597
vn 0.7236 -0.2315 -0.6502
vn 0.7773 -0.1562 -0.6094
vn 0.7757 -0.2310 -0.5873
vn 0.8911 0.1184 0.4380
vn 0.6863 0.5589 -0.4654
vn 0.7806 0.2656 -0.5657
vn 0.3002 -0.9536 -0.0237
vn 0.5356 -0.4351 -0.7238
vn 0.1918 -0.5192 -0.8329
vn -0.7102 -0.6946 0.1149
vn 0.9814 -0.0882 -0.1708
vn 0.9297 -0.1832 -0.3196
vn 0.8597 -0.1976 -0.4711
vn 0.1066 -0.9935 -0.0411
vn 0.8699 -0.2035 0.4493
vn 0.9608 0.1816 -0.2093
vn 0.7968 -0.1666 0.5808
vn 0.9529 -0.0480 0.2994
vn 0.8929 -0.1808 0.4123
vn 0.8744 -0.1127 0.4719
vn 0.9392 -0.2921 0.1806
vn 0.7146 -0.6215 0.3211
vn -0.0658 -0.9978 -0.0101
vn -0.1605 -0.5562 -0.8154
vn 0.7844 -0.2427 -0.5708
vn 0.8734 -0.1298 -0.4693
vn 0.6344 -0.0671 -0.7701
vn 0.6579 -0.1398 -0.7400
vn 0.2531 0.1985 0.9469
vn 0.3514 0.1220 0.9282
vn 0.2642 0.1918 0.9452
vn 0.9932 -0.0078 -0.1163
vn 0.6952 -0.4003 -0.5970
vn 0.9938 -0.0938 0.0592
vn 0.9937 -0.0807 0.0777
vn 0.9940 -0.0892 -0.0640
vn 0.9858 -0.1674 0.0151
vn 0.9913 0.1093 0.0729
vn -0.9982 -0.0191 -0.0573
vn 0.6262 0.6531 0.4258
vn 0.8915 -0.3072 -0.3329
vn 0.9748 -0.1919 -0.1141
vn 0.7496 -0.0900 -0.6557
vn 0.7646 -0.0698 -0.6407
vn -0.9287 -0.3666 -0.0554
vn -0.9134 -0.3799 -0.1463
vn -0.9216 -0.3819 -0.0693
vn 0.6451 -0.3431 -0.6827
vn -0.8084 -0.5886 -0.0064
vn -0.8444 -0.4857 -0.2260
vn -0.8446 -0.4855 -0.2258
vn 0.6792 -0.2904 -0.6740
vn 0.9789 -0.1964 0.0567
vn -0.8970 -0.4419 -0.0078
vn -0.9825 -0.0119 -0.1858
vn 0.5463 -0.3668 0.7531
vn -0.0072 -0.9409 -0.3387
vn -0.8558 -0.5170 0.0198
vt 0.534125 0.396649
vt 0.461963 0.225401
vt 0.454542 0.243847
vt 0.546399 0.402546
vt 0.789974 0.473636
vt 0.461963 0.239295
vt 0.918921 0.248289
vt 0.918298 0.238810
vt 0.507951 0.316376
vt 0.454517 0.226929
vt 0.531864 0.295619
vt 0.834334 0.651758
vt 0.527101 0.400003
vt 0.457571 0.219729
vt 0.859483 0.384333
vt 0.836912 0.914420
vt 0.554143 0.263749
vt 0.833425 0.906440
vt 0.545077 0.274467
vt 0.517424 0.383304
vt 0.898388 0.649119
vt 0.510318 0.326834
vt 0.650182 0.230635
vt 0.517984 0.297354
vt 0.921487 0.603644
vt 0.537810 0.284982
vt 0.532840 0.304708
vt 0.725566 0.053313
vt 0.505562 0.291553
vt 0.659135 0.218578
vt 0.917194 0.909499
vt 0.294939 0.266656
vt 0.841190 0.895196
vt 0.921487 0.590996
vt 0.550039 0.286423
vt 0.524640 0.310832
vt 0.236964 0.343775
vt 0.488517 0.343233
vt 0.671293 0.946039
vt 0.237483 0.419034
vt 0.368515 0.669371
vt 0.533247 0.377857
vt 0.355250 0.644801
vt 0.706733 0.031500
vt 0.822532 0.923811
vt 0.898388 0.667556
vt 0.514916 0.374946
vt 0.893904 0.656520
vt 0.148816 0.798479
vt 0.148532 0.294735
vt 0.400137 0.685078
vt 0.367738 0.648101
vt 0.506013 0.341048
vt 0.411273 0.626270
vt 0.222108 0.332469
vt 0.400688 0.611041
vt 0.229730 0.342417
vt 0.146090 0.297422
vt 0.262885 0.306614
vt 0.559676 0.366147
vt 0.288468 0.718678
vt 0.161848 0.393495
vt 0.542012 0.304579
vt 0.716992 0.049798
vt 0.553773 0.241926
vt 0.261578 0.293966
vt 0.148532 0.310754
vt 0.174713 0.380624
vt 0.306962 0.828997
vt 0.562622 0.380133
vt 0.808589 0.444769
vt 0.809096 0.470471
vt 0.437393 0.636949
vt 0.187790 0.326446
vt 0.445464 0.874922
vt 0.265466 0.264989
vt 0.146974 0.810928
vt 0.288460 0.704413
vt 0.150738 0.395098
vt 0.301775 0.667639
vt 0.286563 0.249523
vt 0.393881 0.600370
vt 0.809131 0.437577
vt 0.565839 0.372639
vt 0.192071 0.316172
vt 0.717828 0.046839
vt 0.542388 0.301441
vt 0.551850 0.245192
vt 0.549328 0.362233
vt 0.295547 0.740397
vt 0.295513 0.682720
vt 0.809096 0.454053
vt 0.433585 0.653889
vt 0.306962 0.869412
vt 0.565839 0.280169
vt 0.409280 0.672016
vt 0.302880 0.838660
vt 0.489800 0.332110
vt 0.499168 0.348752
vt 0.666766 0.951619
vt 0.288766 0.410712
vt 0.318173 0.338700
vt 0.155192 0.401239
vt 0.499213 0.361603
vt 0.488481 0.320321
vt 0.876729 0.895462
vt 0.523200 0.391347
vt 0.195957 0.419855
vt 0.528024 0.383141
vt 0.237638 0.375796
vt 0.206366 0.408581
vt 0.501313 0.307312
vt 0.904019 0.940035
vt 0.826380 0.657451
vt 0.857543 0.897696
vt 0.531009 0.366957
vt 0.917685 0.611026
vt 0.659135 0.243868
vt 0.530709 0.285070
vt 0.806677 0.456414
vt 0.304007 0.869009
vt 0.178612 0.339411
vt 0.432621 0.638427
vt 0.292143 0.696938
vt 0.889536 0.667343
vt 0.822567 0.934103
vt 0.507687 0.364348
vt 0.546855 0.371252
vt 0.431479 0.650699
vt 0.923193 0.881683
vt 0.302942 0.297044
vt 0.514333 0.315005
vt 0.275280 0.412891
vt 0.279865 0.305984
vt 0.231714 0.414791
vt 0.281582 0.254224
vt 0.301775 0.759814
vt 0.562334 0.265993
vt 0.246570 0.340164
vt 0.519664 0.281556
vt 0.525635 0.316978
vt 0.903750 0.933871
vt 0.856910 0.902772
vt 0.856368 0.407908
vt 0.441273 0.881930
vt 0.270757 0.257575
vt 0.561034 0.286337
vt 0.562929 0.275754
vt 0.194820 0.314458
vt 0.861505 0.396285
vt 0.912048 0.937216
vt 0.848070 0.904975
vt 0.806677 0.440949
vt 0.563694 0.375699
vt 0.315527 0.330001
vt 0.253443 0.370682
vt 0.280463 0.369822
vt 0.283601 0.711449
vt 0.855379 0.432639
vt 0.936129 0.380407
vt 0.303943 0.371691
vt 0.789313 0.465288
vt 0.910086 0.248289
vt 0.554198 0.404255
vt 0.771511 0.964302
vt 0.184977 0.407149
vt 0.288478 0.318788
vt 0.503885 0.299822
vt 0.212755 0.319003
vt 0.168984 0.957665
vt 0.285383 0.690007
vt 0.184726 0.414511
vt 0.850791 0.410939
vt 0.285497 0.733391
vt 0.671293 0.963687
vt 0.254153 0.414342
vt 0.939925 0.366974
vt 0.306435 0.350585
vt 0.220808 0.375724
vt 0.215617 0.329699
vt 0.280776 0.385330
vt 0.927036 0.919121
vt 0.283051 0.265009
vt 0.914552 0.598065
vt 0.543992 0.280267
vt 0.516487 0.332669
vt 0.215898 0.396999
vt 0.264454 0.318064
vt 0.210162 0.340445
vt 0.894934 0.882483
vt 0.771511 0.950837
vt 0.167916 0.400166
vt 0.514019 0.352749
vt 0.302431 0.821717
vt 0.177074 0.387607
vt 0.278374 0.319507
vt 0.303321 0.385336
vt 0.293676 0.672359
vt 0.296634 0.251527
vt 0.556803 0.254135
vt 0.294158 0.750585
vt 0.831542 0.936912
vt 0.498315 0.365039
vt 0.553773 0.249093
vt 0.540250 0.297660
vt 0.834334 0.668305
vt 0.869855 0.890884
vt 0.860899 0.429307
vt 0.877993 0.900898
vt 0.145846 0.787653
vt 0.267863 0.286455
vt 0.355877 0.670137
vt 0.374372 0.682595
vt 0.388192 0.604077
vt 0.444732 0.880974
vt 0.292911 0.711354
vt 0.397842 0.679652
vt 0.715304 0.026137
vt 0.518111 0.361198
vt 0.157186 0.388692
vt 0.165348 0.389255
vt 0.399994 0.692569
vt 0.401997 0.669427
vt 0.300480 0.674261
vt 0.300524 0.748952
vt 0.148816 0.783549
vt 0.912048 0.949957
vt 0.832985 0.645987
vt 0.849123 0.894185
vt 0.282530 0.409203
vt 0.309513 0.309649
vt 0.939925 0.382101
vt 0.306233 0.371279
vt 0.835347 0.897786
vt 0.536665 0.274829
vt 0.317136 0.358008
vt 0.885068 0.886955
vt 0.784009 0.473636
vt 0.548091 0.396657
vt 0.260158 0.401378
vt 0.498621 0.321229
vt 0.809131 0.454053
vt 0.556608 0.390451
vt 0.906407 0.891766
vt 0.920897 0.917958
vt 0.290373 0.259534
vt 0.891540 0.895820
vt 0.200015 0.401239
vt 0.850195 0.399007
vt 0.552982 0.249523
vt 0.270394 0.272012
vt 0.289099 0.678761
vt 0.303388 0.251847
vt 0.241364 0.406161
vt 0.283855 0.722199
vt 0.853782 0.421847
vt 0.767386 0.953861
vt 0.171695 0.404705
vt 0.861505 0.441680
vt 0.889931 0.907814
vt 0.283766 0.700746
vt 0.173374 0.948048
vt 0.294858 0.400269
vt 0.927620 0.897937
vt 0.293583 0.283870
vt 0.299973 0.848636
vt 0.177571 0.360242
vt 0.173374 0.964769
vt 0.903356 0.904987
vt 0.280334 0.687120
vt 0.304810 0.263193
vt 0.512921 0.306069
vt 0.231593 0.347100
vt 0.264109 0.418299
vt 0.224585 0.422083
vt 0.210029 0.422015
s 1
usemtl Material.005
f 13/22/1 87/132/2 123/186/3
f 26/42/4 161/239/5 1/1/6
f 26/42/4 164/243/7 161/239/5
f 83/127/8 68/104/9 63/99/10
f 7/11/11 21/36/12 14/24/13
f 147/219/14 30/47/15 83/127/8
f 78/116/16 84/128/17 26/42/4
f 3/6/18 6/10/19 1/2/6
f 1/1/6 71/107/20 73/109/21
f 158/235/22 122/185/23 79/119/24
f 26/42/4 84/128/17 164/243/7
f 26/42/4 1/1/6 73/109/21
f 26/42/4 73/109/21 30/47/15
f 147/219/14 78/116/16 26/42/4
f 109/166/25 130/195/26 168/248/27
f 101/151/28 154/227/29 77/113/30
f 83/125/8 30/48/15 29/46/31
f 16/27/32 136/205/33 43/63/34
f 7/11/11 15/26/35 136/205/33
f 155/230/36 176/263/37 65/101/38
f 62/98/39 35/53/40 23/38/41
f 63/99/10 23/38/41 35/53/40
f 9/13/42 71/107/20 1/1/6
f 16/27/32 7/11/11 136/205/33
f 16/27/32 95/141/43 21/36/12
f 116/175/44 64/100/45 24/39/46
f 16/28/32 28/44/47 146/218/48
f 138/209/49 167/247/50 175/260/51
f 184/276/52 72/108/53 75/111/54
f 169/249/55 101/150/28 96/144/56
f 168/248/27 124/187/57 75/111/54
f 83/127/8 63/99/10 129/193/58
f 10/17/59 134/200/60 92/138/61
f 135/202/62 83/126/8 29/45/31
f 11/18/63 158/234/22 19/33/64
f 8/12/65 77/114/30 154/228/29
f 3/4/18 1/1/6 161/239/5
f 180/272/66 76/112/67 111/168/68
f 14/24/13 79/119/24 7/11/11
f 75/111/54 114/172/69 109/166/25
f 10/15/59 101/150/28 169/249/55
f 115/173/70 169/249/55 96/144/56
f 10/17/59 122/185/23 11/19/63
f 10/16/59 11/18/63 101/152/28
f 167/247/50 138/209/49 70/106/71
f 114/172/69 75/111/54 72/108/53
f 161/238/5 108/162/72 3/5/18
f 83/127/8 135/203/62 68/104/9
f 2/3/73 6/10/19 3/6/18
f 4/8/74 3/7/18 108/163/72
f 147/219/14 83/127/8 129/193/58
f 147/219/14 26/42/4 30/47/15
f 9/14/42 1/2/6 6/10/19
f 62/98/39 69/105/75 163/241/76
f 12/20/77 30/47/15 73/109/21
f 180/272/66 5/9/78 76/112/67
f 15/25/35 79/117/24 122/184/23
f 21/36/12 87/132/2 180/272/66
f 167/247/50 70/106/71 160/237/79
f 101/151/28 77/113/30 96/142/56
f 77/114/30 8/12/65 137/206/80
f 12/20/77 73/109/21 71/107/20
f 15/25/35 122/184/23 20/34/81
f 160/237/79 70/106/71 137/207/80
f 19/33/64 154/229/29 101/152/28
f 10/17/59 169/250/55 134/200/60
f 122/185/23 10/17/59 20/35/81
f 180/272/66 111/168/68 14/24/13
f 179/269/82 127/190/83 165/244/84
f 15/26/35 7/11/11 79/119/24
f 179/269/82 167/247/50 127/190/83
f 111/168/68 17/29/85 14/24/13
f 10/17/59 92/138/61 99/148/86
f 13/22/1 163/241/76 5/9/78
f 13/22/1 35/53/40 62/98/39
f 79/119/24 17/29/85 94/140/87
f 79/118/24 14/23/13 17/30/85
f 75/111/54 109/166/25 168/248/27
f 158/235/22 79/119/24 94/140/87
f 76/112/67 163/241/76 69/105/75
f 138/208/49 175/259/51 106/159/88
f 15/26/35 20/35/81 136/205/33
f 160/237/79 127/190/83 167/247/50
f 16/27/32 21/36/12 7/11/11
f 56/89/89 84/128/17 78/116/16
f 155/230/36 120/181/90 176/263/37
f 11/18/63 19/33/64 101/152/28
f 16/28/32 55/86/91 28/44/47
f 16/28/32 43/64/34 55/86/91
f 13/22/1 5/9/78 87/132/2
f 129/193/58 63/99/10 35/53/40
f 163/241/76 13/22/1 62/98/39
f 108/164/72 164/243/7 46/70/92
f 108/164/72 161/239/5 164/243/7
f 12/21/77 29/46/31 30/48/15
f 152/225/93 92/137/61 134/201/60
f 46/71/92 102/153/94 53/83/95
f 37/55/96 119/180/97 112/169/98
f 136/205/33 98/147/99 55/87/91
f 58/91/100 133/198/101 51/80/102
f 47/72/103 80/120/104 59/92/105
f 85/129/106 47/73/103 59/93/105
f 130/195/26 42/62/107 45/68/108
f 41/61/109 106/158/88 144/216/110
f 61/97/111 80/121/104 178/266/112
f 61/96/111 85/129/106 59/93/105
f 106/158/88 49/78/113 144/216/110
f 121/183/114 170/251/115 97/146/116
f 18/31/117 179/269/82 165/244/84
f 184/276/52 90/135/118 183/275/119
f 75/111/54 124/187/57 90/135/118
f 167/247/50 179/269/82 175/260/51
f 162/240/120 105/157/121 120/181/90
f 67/103/122 50/79/123 42/62/107
f 103/155/124 117/178/125 110/167/126
f 178/266/112 130/194/26 61/97/111
f 61/97/111 59/94/105 80/121/104
f 130/195/26 128/192/127 42/62/107
f 182/274/128 116/176/44 88/133/129
f 51/80/102 151/224/130 58/91/100
f 58/91/100 171/252/131 133/198/101
f 58/91/100 113/171/132 171/252/131
f 92/138/61 60/95/133 99/148/86
f 104/156/134 131/196/135 105/157/121
f 51/81/102 133/199/101 91/136/136
f 49/78/113 82/124/137 144/216/110
f 175/261/51 113/171/132 49/78/113
f 49/78/113 106/158/88 175/261/51
f 48/76/138 97/146/116 170/251/115
f 104/156/134 105/157/121 162/240/120
f 162/240/120 172/254/139 104/156/134
f 47/74/103 54/85/140 100/149/141
f 46/71/92 164/242/7 102/153/94
f 45/69/108 61/97/111 130/194/26
f 162/240/120 88/133/129 116/176/44
f 162/240/120 120/181/90 88/133/129
f 139/211/142 39/59/143 44/66/144
f 43/65/34 136/204/33 55/88/91
f 148/220/145 149/221/146 42/62/107
f 42/62/107 50/79/123 148/220/145
f 75/111/54 90/135/118 184/276/52
f 173/255/147 106/158/88 41/61/109
f 41/61/109 115/174/70 173/255/147
f 66/102/148 159/236/149 117/178/125
f 117/177/125 157/232/150 107/160/151
f 39/58/143 32/50/152 44/67/144
f 164/243/7 84/128/17 102/154/94
f 139/210/142 153/226/153 31/49/154
f 181/273/155 119/180/97 37/55/96
f 177/264/156 121/182/114 18/31/117
f 118/179/157 126/189/158 74/110/159
f 123/186/3 21/36/12 95/141/43
f 178/267/112 80/122/104 47/74/103
f 178/267/112 47/74/103 126/189/158
f 24/40/46 90/135/118 172/254/139
f 104/156/134 74/110/159 93/139/160
f 35/53/40 123/186/3 129/193/58
f 38/56/161 142/214/162 52/82/162
f 77/115/30 137/207/80 70/106/71
f 138/209/49 96/143/56 77/115/30
f 105/157/121 117/178/125 107/161/151
f 117/178/125 105/157/121 110/167/126
f 128/191/127 109/165/25 174/257/163
f 89/134/164 125/188/165 39/59/143
f 39/59/143 139/211/142 89/134/164
f 175/262/51 179/268/82 113/170/132
f 166/246/166 91/136/136 133/199/101
f 132/197/167 120/181/90 105/157/121
f 89/134/164 121/183/114 177/265/156
f 170/251/115 121/183/114 89/134/164
f 133/199/101 171/253/131 166/246/166
f 34/52/168 145/217/169 25/41/170
f 124/187/57 118/179/157 74/110/159
f 178/267/112 168/248/27 130/195/26
f 104/156/134 93/139/160 125/188/165
f 66/102/148 117/178/125 103/155/124
f 165/244/84 86/130/171 18/31/117
f 128/192/127 130/195/26 109/166/25
f 115/173/70 96/144/56 173/256/147
f 18/31/117 166/245/166 179/269/82
f 20/35/81 10/17/59 99/148/86
f 102/154/94 56/89/89 40/60/172
f 102/154/94 40/60/172 53/84/95
f 138/208/49 106/159/88 173/256/147
f 173/256/147 96/144/56 138/208/49
f 177/264/156 18/31/117 86/130/171
f 119/180/97 126/189/158 47/74/103
f 21/36/12 180/272/66 14/24/13
f 172/254/139 124/187/57 74/110/159
f 33/51/173 149/222/146 141/213/174
f 156/231/175 103/155/124 110/167/126
f 74/110/159 126/189/158 22/37/176
f 34/52/168 25/41/170 27/43/177
f 150/223/178 36/54/178 81/123/178
f 141/213/174 145/217/169 33/51/173
f 48/75/138 143/215/179 97/145/116
f 115/174/70 41/61/109 57/90/180
f 181/273/155 37/55/96 38/57/161
f 48/76/138 170/251/115 139/211/142
f 139/210/142 31/49/154 48/77/138
f 42/62/107 128/192/127 67/103/122
f 49/78/113 113/171/132 58/91/100
f 25/41/170 140/212/181 27/43/177
f 22/37/176 93/139/160 74/110/159
f 156/231/175 110/167/126 86/131/171
f 105/157/121 107/161/151 132/197/167
f 180/272/66 87/132/2 5/9/78
f 109/166/25 114/172/69 174/258/163
f 172/254/139 74/110/159 104/156/134
f 47/74/103 100/149/141 119/180/97
f 98/147/99 20/35/81 99/148/86
f 131/196/135 110/167/126 105/157/121
f 122/185/23 158/235/22 11/19/63
f 181/273/155 126/189/158 119/180/97
f 13/22/1 123/186/3 35/53/40
f 104/156/134 125/188/165 131/196/135
f 178/267/112 118/179/157 168/248/27
f 89/134/164 139/211/142 170/251/115
f 177/265/156 110/167/126 89/134/164
f 177/265/156 86/131/171 110/167/126
f 113/171/132 179/270/82 171/252/131
f 131/196/135 125/188/165 89/134/164
f 120/181/90 132/197/167 176/263/37
f 110/167/126 131/196/135 89/134/164
f 77/115/30 70/106/71 138/209/49
f 162/240/120 116/176/44 24/40/46
f 24/40/46 172/254/139 162/240/120
f 178/267/112 126/189/158 118/179/157
f 121/183/114 166/246/166 18/32/117
f 168/248/27 118/179/157 124/187/57
f 123/186/3 87/132/2 21/36/12
f 159/236/149 157/233/150 117/178/125
f 163/241/76 76/112/67 5/9/78
f 20/35/81 98/147/99 136/205/33
f 155/230/36 88/133/129 120/181/90
f 166/246/166 121/183/114 91/136/136
f 124/187/57 172/254/139 90/135/118
f 171/253/131 179/271/82 166/246/166
f 84/128/17 56/89/89 102/154/94
f 91/136/136 121/183/114 97/146/116
